<mxfile host="app.diagrams.net" modified="2021-08-22T03:40:19.971Z" agent="5.0 (Windows NT 10.0; Win64; x64) AppleWebKit/537.36 (KHTML, like Gecko) Chrome/92.0.4515.159 Safari/537.36 Edg/92.0.902.78" etag="UCEg2D6uoGO9jaNLwQ4v" version="14.9.8" type="github">
  <diagram id="ev8685OX2xh4oLoqRVDT" name="Page-1">
    <mxGraphModel dx="1038" dy="1679" grid="1" gridSize="10" guides="1" tooltips="1" connect="1" arrows="1" fold="1" page="1" pageScale="1" pageWidth="850" pageHeight="1100" math="0" shadow="0">
      <root>
        <mxCell id="0" />
        <mxCell id="1" parent="0" />
        <mxCell id="zd7SQdhG6jCTCzgBNikT-27" style="edgeStyle=orthogonalEdgeStyle;curved=1;rounded=0;orthogonalLoop=1;jettySize=auto;html=1;entryX=-0.012;entryY=0.533;entryDx=0;entryDy=0;entryPerimeter=0;" edge="1" parent="1" source="zd7SQdhG6jCTCzgBNikT-1" target="zd7SQdhG6jCTCzgBNikT-11">
          <mxGeometry relative="1" as="geometry" />
        </mxCell>
        <mxCell id="zd7SQdhG6jCTCzgBNikT-1" value="Create Q" style="rounded=0;whiteSpace=wrap;html=1;" vertex="1" parent="1">
          <mxGeometry x="70" y="240" width="120" height="60" as="geometry" />
        </mxCell>
        <mxCell id="zd7SQdhG6jCTCzgBNikT-8" style="edgeStyle=orthogonalEdgeStyle;rounded=0;orthogonalLoop=1;jettySize=auto;html=1;" edge="1" parent="1" source="zd7SQdhG6jCTCzgBNikT-6" target="zd7SQdhG6jCTCzgBNikT-9">
          <mxGeometry relative="1" as="geometry">
            <mxPoint x="500" y="330" as="targetPoint" />
          </mxGeometry>
        </mxCell>
        <mxCell id="zd7SQdhG6jCTCzgBNikT-14" value="" style="edgeStyle=orthogonalEdgeStyle;rounded=0;orthogonalLoop=1;jettySize=auto;html=1;" edge="1" parent="1" source="zd7SQdhG6jCTCzgBNikT-6" target="zd7SQdhG6jCTCzgBNikT-13">
          <mxGeometry relative="1" as="geometry" />
        </mxCell>
        <mxCell id="zd7SQdhG6jCTCzgBNikT-6" value="Login?&lt;br&gt;token==null?" style="rhombus;whiteSpace=wrap;html=1;" vertex="1" parent="1">
          <mxGeometry x="450" y="120" width="80" height="80" as="geometry" />
        </mxCell>
        <mxCell id="zd7SQdhG6jCTCzgBNikT-9" value="/login" style="rounded=0;whiteSpace=wrap;html=1;" vertex="1" parent="1">
          <mxGeometry x="330" y="340" width="120" height="60" as="geometry" />
        </mxCell>
        <mxCell id="zd7SQdhG6jCTCzgBNikT-10" value="Yes" style="text;html=1;strokeColor=none;fillColor=none;align=center;verticalAlign=middle;whiteSpace=wrap;rounded=0;" vertex="1" parent="1">
          <mxGeometry x="470" y="220" width="40" height="20" as="geometry" />
        </mxCell>
        <mxCell id="zd7SQdhG6jCTCzgBNikT-18" style="edgeStyle=orthogonalEdgeStyle;curved=1;rounded=0;orthogonalLoop=1;jettySize=auto;html=1;" edge="1" parent="1" source="zd7SQdhG6jCTCzgBNikT-11" target="zd7SQdhG6jCTCzgBNikT-6">
          <mxGeometry relative="1" as="geometry" />
        </mxCell>
        <mxCell id="zd7SQdhG6jCTCzgBNikT-11" value="&lt;font style=&quot;font-size: 24px&quot;&gt;title//client&lt;br&gt;tags[]//c&lt;br&gt;body//c&lt;br&gt;token in header//c&lt;br&gt;----------&lt;br&gt;&lt;br&gt;&lt;/font&gt;" style="ellipse;whiteSpace=wrap;html=1;aspect=fixed;" vertex="1" parent="1">
          <mxGeometry x="210" y="-180" width="220" height="220" as="geometry" />
        </mxCell>
        <mxCell id="zd7SQdhG6jCTCzgBNikT-25" style="edgeStyle=orthogonalEdgeStyle;curved=1;rounded=0;orthogonalLoop=1;jettySize=auto;html=1;endArrow=box;endFill=0;" edge="1" parent="1" source="zd7SQdhG6jCTCzgBNikT-13" target="zd7SQdhG6jCTCzgBNikT-26">
          <mxGeometry relative="1" as="geometry">
            <mxPoint x="770" y="360" as="targetPoint" />
          </mxGeometry>
        </mxCell>
        <mxCell id="zd7SQdhG6jCTCzgBNikT-13" value="/lnewpost&lt;br&gt;" style="whiteSpace=wrap;html=1;" vertex="1" parent="1">
          <mxGeometry x="700" y="170" width="110" height="80" as="geometry" />
        </mxCell>
        <mxCell id="zd7SQdhG6jCTCzgBNikT-15" value="No" style="text;html=1;strokeColor=none;fillColor=none;align=center;verticalAlign=middle;whiteSpace=wrap;rounded=0;" vertex="1" parent="1">
          <mxGeometry x="570" y="143" width="40" height="20" as="geometry" />
        </mxCell>
        <mxCell id="zd7SQdhG6jCTCzgBNikT-26" value="&lt;font style=&quot;font-size: 18px&quot;&gt;title//client&lt;br&gt;tags[]//c&lt;br&gt;body//c&lt;br&gt;token in header//c&lt;br&gt;----------&lt;br&gt;self_id=counter++//server&lt;br&gt;parent_id=self_id//s&lt;br&gt;QA=Q//s&lt;br&gt;username=validate(token)//s&lt;br&gt;data=now()//s&lt;br&gt;uvotes=0//s&lt;br&gt;dvotes=0//s&lt;br&gt;views=0//s&lt;br&gt;qStatus=&#39;open&#39;//s&lt;br&gt;aStatus=null//s&lt;/font&gt;" style="rounded=0;whiteSpace=wrap;html=1;" vertex="1" parent="1">
          <mxGeometry x="500" y="330" width="330" height="340" as="geometry" />
        </mxCell>
      </root>
    </mxGraphModel>
  </diagram>
</mxfile>
